<svg width="446" height="338" viewBox="0 0 446 338" fill="none" xmlns="http://www.w3.org/2000/svg">
<g clip-path="url(#clip0_14_310)">
<path d="M398.139 225.493C393.587 227.12 385.684 228.239 376.566 228.994C351.774 231.053 317.978 230.473 317.978 230.473C317.978 230.473 143.708 237.687 16.9139 170.245C16.9139 170.245 -1.40215 158.021 16.9273 143.822C19.7462 141.704 22.7211 139.87 25.8176 138.34L26.0446 138.108C28.1488 136.123 30.4032 134.353 32.7808 132.819C39.7726 128.237 51.4484 122.984 65.1495 126.36L403.231 206.828C403.231 206.828 415.073 219.422 398.139 225.493Z" fill="#FFBA08"/>
<path d="M331.61 193.567L406.083 139.844L437.255 147.669L403.231 206.828C403.231 206.828 331.9 203.737 331.61 193.567Z" fill="#FFBA08"/>
<path d="M153.528 149.224L298.243 111.436L320.902 118.075L254.884 147.49L233.454 171.92L153.528 149.224Z" fill="#FFBA08"/>
<path d="M376.567 228.994C351.774 231.052 317.978 230.473 317.978 230.473C317.978 230.473 143.708 237.687 16.9139 170.245C16.9139 170.245 -1.40212 158.021 16.9273 143.822L16.972 144.104C16.972 144.104 43.8908 167.058 176.948 192.015L376.567 228.994Z" fill="#F5F8FA"/>
<path d="M353.752 226.555L415.847 259.342L431.939 258.17L395.574 223.747C395.574 223.747 350.115 210.199 353.752 226.555Z" fill="#FFBA08"/>
<path d="M39.8829 148.46C36.8439 148.358 30.1899 142.221 26.0674 138.109C28.1716 136.124 30.426 134.354 32.8036 132.82C36.132 136.036 42.0791 141.269 45.54 141.259C50.5348 141.288 44.4601 148.607 39.8829 148.46Z" fill="#F5F8FA"/>
<path d="M320.44 326.895L279.454 327.177L169.177 233.358L148.706 215.939L138.764 207.475C159.172 189.892 237.116 219.702 237.116 219.702C238.558 221.233 238.915 223.672 238.707 226.334C238.313 231.319 235.936 237.069 235.028 239.136C234.81 239.642 234.677 239.91 234.677 239.91L320.44 326.895Z" fill="#FFBA08"/>
<path d="M397.622 108.614L390.267 113.327L395.025 104.701C393.867 103.537 392.394 102.849 390.84 102.746L390.726 102.74C390.234 102.725 389.744 102.657 389.264 102.539L386.776 104.139L387.913 102.074C386.249 101.309 384.848 99.9666 383.908 98.2373L379.456 101.113L382.457 95.6639C380.129 92.1171 376.856 89.8471 373.132 89.652C368.669 89.4181 364.536 92.217 361.723 96.7741C360.889 98.1392 359.752 99.2341 358.43 99.9476C357.108 100.661 355.648 100.967 354.197 100.836L353.96 100.823C349.032 100.565 344.707 106.685 344.297 114.498C343.888 122.31 347.549 128.849 352.477 129.107C353.56 129.16 354.642 128.913 355.628 128.387C357.354 127.552 359.215 127.149 361.081 127.206C362.948 127.262 364.776 127.777 366.44 128.715C367.844 129.525 369.388 129.989 370.969 130.077C372.551 130.164 374.136 129.873 375.62 129.222C377.357 128.478 379.211 128.165 381.055 128.301C382.898 128.438 384.69 129.023 386.307 130.015C387.227 130.627 388.267 130.978 389.339 131.039C394.267 131.297 398.592 125.177 399.001 117.365C399.198 114.353 398.724 111.344 397.622 108.614V108.614Z" fill="#F5F8FA"/>
<path opacity="0.03" d="M383.204 128.609C380.658 127.922 377.98 128.11 375.509 129.149C374.028 129.806 372.444 130.102 370.863 130.019C369.281 129.936 367.738 129.476 366.333 128.668C364.67 127.728 362.841 127.212 360.974 127.155C359.107 127.098 357.247 127.502 355.521 128.339C354.533 128.864 353.45 129.111 352.366 129.06C347.989 128.831 344.609 123.638 344.198 117.005C345.111 116.331 345.902 115.462 346.526 114.449C349.338 109.897 353.471 107.098 357.934 107.332C362.397 107.566 366.176 110.717 368.495 115.502C369.188 116.947 370.202 118.16 371.439 119.021C372.675 119.882 374.092 120.363 375.551 120.415L375.665 120.421C379.126 120.592 381.978 123.913 383.204 128.609Z" fill="black"/>
<path d="M105.906 74.9893L102.24 77.3411L104.614 73.0408C104.037 72.4574 103.302 72.1124 102.526 72.0609L102.471 72.058C102.225 72.048 101.981 72.0144 101.74 71.9576L100.501 72.7527L101.066 71.746C100.236 71.3651 99.5368 70.6956 99.0679 69.8331L96.8487 71.2711L98.3622 68.5578C97.8372 67.6944 97.1473 66.977 96.3426 66.458C95.5378 65.939 94.6387 65.6314 93.7106 65.5576C91.486 65.441 89.4244 66.8355 88.039 69.11C87.6221 69.7927 87.054 70.3401 86.3928 70.696C85.7315 71.0519 85.001 71.2036 84.2759 71.1355L84.1574 71.1293C81.7003 71.0006 79.5424 74.0584 79.3382 77.9543C79.1341 81.8502 80.9607 85.1117 83.4178 85.2405C83.9584 85.2668 84.4981 85.144 84.9908 84.8825C85.8518 84.4647 86.7802 84.2629 87.7118 84.2911C88.6433 84.3193 89.5556 84.577 90.3854 85.0461C91.084 85.4452 91.8507 85.6727 92.636 85.7138C93.4212 85.755 94.2075 85.6089 94.944 85.285C95.811 84.9137 96.7359 84.7571 97.6559 84.8259C98.576 84.8947 99.4696 85.1872 100.276 85.6836C100.735 85.9862 101.252 86.1607 101.785 86.1927C104.242 86.3215 106.4 83.2688 106.604 79.3729C106.701 77.8636 106.46 76.3561 105.906 74.9893Z" fill="#F5F8FA"/>
<path opacity="0.03" d="M98.7138 84.9644C97.4437 84.6182 96.1061 84.7123 94.8736 85.2346C94.1366 85.5564 93.3507 85.7022 92.5655 85.6629C91.7716 85.621 90.9969 85.3879 90.2929 84.979C89.4625 84.5117 88.5501 84.2555 87.6187 84.2282C86.6872 84.2008 85.759 84.403 84.8981 84.8206C84.4071 85.0822 83.8688 85.2051 83.3297 85.1789C81.1461 85.0644 79.458 82.4734 79.2519 79.1674C79.7064 78.828 80.1013 78.3951 80.4158 77.8916C81.8149 75.6178 83.8764 74.2233 86.0874 74.3392C88.2983 74.455 90.1945 76.0414 91.359 78.4185C91.7053 79.1409 92.2126 79.7465 92.8312 80.1758C93.4498 80.6052 94.1584 80.8436 94.8876 80.8676L94.9468 80.8707C96.6655 80.9608 98.1006 82.6214 98.7138 84.9644Z" fill="black"/>
<path d="M258.19 30.3237L250.835 35.0366L255.593 26.4105C254.435 25.2471 252.962 24.5592 251.408 24.4555L251.294 24.4495C250.802 24.4346 250.312 24.3674 249.833 24.2486L247.344 25.8487L248.481 23.784C246.818 23.0191 245.416 21.6766 244.477 19.9472L240.024 22.8226L243.025 17.3738C240.697 13.827 237.424 11.5571 233.7 11.3619C229.237 11.128 225.104 13.9269 222.292 18.4841C221.457 19.8491 220.321 20.9441 218.999 21.6575C217.677 22.3709 216.216 22.6773 214.765 22.5455L214.528 22.533C209.6 22.2748 205.275 28.3951 204.865 36.2077C204.456 44.0202 208.118 50.5591 213.046 50.8174C214.129 50.8702 215.21 50.6228 216.196 50.0965C217.923 49.2618 219.783 48.859 221.65 48.9156C223.516 48.9723 225.345 49.4872 227.008 50.4248C228.413 51.2352 229.956 51.6991 231.538 51.7865C233.119 51.8738 234.704 51.5826 236.188 50.9318C237.926 50.1884 239.779 49.8745 241.623 50.0114C243.467 50.1482 245.258 50.7326 246.875 51.725C247.796 52.3369 248.835 52.688 249.907 52.7492C254.835 53.0074 259.16 46.8871 259.569 39.0746C259.766 36.0631 259.292 33.0538 258.19 30.3237V30.3237Z" fill="#F5F8FA"/>
<path d="M79.1446 232.131L71.7895 236.844L76.5476 228.217C75.3893 227.054 73.9166 226.366 72.3623 226.262L72.2483 226.256C71.7561 226.242 71.2669 226.174 70.787 226.055L68.2987 227.656L69.4354 225.591C67.7721 224.826 66.3709 223.483 65.431 221.754L60.9788 224.63L63.9797 219.181C61.6514 215.634 58.3785 213.364 54.6541 213.169C50.1912 212.935 46.0585 215.734 43.2461 220.291C42.4114 221.656 41.2751 222.751 39.953 223.464C38.6309 224.178 37.1701 224.484 35.7193 224.352L35.4823 224.34C30.5544 224.082 26.2293 230.202 25.8199 238.015C25.4104 245.827 29.0721 252.366 34 252.624C35.083 252.677 36.1645 252.43 37.1507 251.903C38.8769 251.069 40.7375 250.666 42.6041 250.723C44.4707 250.779 46.2989 251.294 47.9626 252.232C49.3671 253.042 50.9103 253.506 52.492 253.593C54.0736 253.681 55.6582 253.39 57.1424 252.739C58.88 251.995 60.7334 251.681 62.5772 251.818C64.4211 251.955 66.2122 252.54 67.8294 253.532C68.7501 254.144 69.7897 254.495 70.8612 254.556C75.7891 254.814 80.1142 248.694 80.5237 240.881C80.7209 237.87 80.2466 234.861 79.1446 232.131V232.131Z" fill="#F5F8FA"/>
<path opacity="0.03" d="M243.772 50.3189C241.226 49.6319 238.548 49.8198 236.078 50.8586C234.596 51.5155 233.012 51.8122 231.431 51.7293C229.85 51.6464 228.306 51.1858 226.901 50.3777C225.238 49.4378 223.41 48.9216 221.543 48.8649C219.676 48.8082 217.815 49.2124 216.089 50.0494C215.101 50.5739 214.018 50.8211 212.934 50.7701C208.557 50.5407 205.177 45.3481 204.766 38.7153C205.679 38.0405 206.47 37.172 207.094 36.1587C209.906 31.6067 214.039 28.8078 218.502 29.0417C222.965 29.2756 226.745 32.427 229.063 37.2115C229.756 38.6572 230.77 39.8697 232.007 40.7309C233.244 41.5921 234.66 42.0725 236.119 42.1253L236.233 42.1313C239.694 42.3023 242.546 45.6226 243.772 50.3189Z" fill="black"/>
<path opacity="0.03" d="M64.726 252.126C62.1808 251.439 59.5028 251.627 57.0319 252.666C55.5502 253.322 53.9668 253.619 52.3854 253.536C50.804 253.453 49.2603 252.993 47.8554 252.185C46.1923 251.245 44.3639 250.729 42.4969 250.672C40.6299 250.615 38.7691 251.019 37.0434 251.856C36.0551 252.381 34.9725 252.628 33.8881 252.577C29.5118 252.348 26.1316 247.155 25.7204 240.522C26.6338 239.847 27.4246 238.979 28.0485 237.966C30.8607 233.414 34.9934 230.615 39.4563 230.849C43.9193 231.082 47.699 234.234 50.0173 239.018C50.7102 240.464 51.7245 241.677 52.9612 242.538C54.1979 243.399 55.6148 243.879 57.0736 243.932L57.1876 243.938C60.6481 244.109 63.5002 247.43 64.726 252.126Z" fill="black"/>
</g>
<defs>
<clipPath id="clip0_14_310">
<rect width="428.909" height="315.19" fill="white" transform="translate(17) rotate(3)"/>
</clipPath>
</defs>
</svg>
